<svg xmlns="http://www.w3.org/2000/svg" viewBox="0 0 41.56 30"><defs><style>.cls-1{fill:#cdc3e2;}</style></defs><title>credit-card-icon</title><g id="Layer_2" data-name="Layer 2"><g id="Layer_4" data-name="Layer 4"><polygon class="cls-1" points="29.68 5.77 24.06 5.77 0.73 5.77 0.73 13.25 21.59 13.25 35.13 13.25 40.08 13.25 40.08 5.77 29.68 5.77"/><path class="cls-1" d="M36.81,30H4.75A4.75,4.75,0,0,1,0,25.25V4.75A4.75,4.75,0,0,1,4.75,0H36.81a4.75,4.75,0,0,1,4.75,4.75v20.5A4.75,4.75,0,0,1,36.81,30ZM4.75,1.65a3.1,3.1,0,0,0-3.1,3.1v20.5a3.1,3.1,0,0,0,3.1,3.1H36.81a3.1,3.1,0,0,0,3.1-3.1V4.75a3.1,3.1,0,0,0-3.1-3.1Z"/><rect class="cls-1" x="23.72" y="17.89" width="2.84" height="1.89"/><path class="cls-1" d="M26.56,16.95V15.06h-.47a2.4,2.4,0,0,0-2.26,1.89Z"/><rect class="cls-1" x="23.72" y="20.73" width="2.84" height="1.89"/><path class="cls-1" d="M23.84,23.56a2.4,2.4,0,0,0,2.25,1.83h.47V23.56Z"/><rect class="cls-1" x="32.23" y="17.89" width="2.84" height="1.89"/><rect class="cls-1" x="32.23" y="20.73" width="2.84" height="1.89"/><path class="cls-1" d="M32.23,23.56V25.4h.47a2.4,2.4,0,0,0,2.25-1.83Z"/><path class="cls-1" d="M31.28,23.56V16.95H35a2.4,2.4,0,0,0-2.26-1.89H27.5V25.4h3.78Z"/><path class="cls-1" d="M15.83,20H5.46a.83.83,0,0,1,0-1.67H15.83a.83.83,0,1,1,0,1.67Z"/><path class="cls-1" d="M19.84,23.39H5.55a.83.83,0,0,1,0-1.67H19.84a.83.83,0,0,1,0,1.67Z"/></g></g></svg>