<?xml version="1.0" encoding="utf-8"?>
<!-- Generator: Adobe Illustrator 21.0.2, SVG Export Plug-In . SVG Version: 6.00 Build 0)  -->
<svg version="1.1" id="Layer_1" xmlns="http://www.w3.org/2000/svg" xmlns:xlink="http://www.w3.org/1999/xlink" x="0px" y="0px"
	 viewBox="0 0 256 256" style="enable-background:new 0 0 256 256;" xml:space="preserve">
<style type="text/css">
	.st0{fill:url(#SVGID_1_);}
</style>
<linearGradient id="SVGID_1_" gradientUnits="userSpaceOnUse" x1="37.5103" y1="218.4897" x2="250.538" y2="5.462">
	<stop  offset="0" style="stop-color:#1373DC"/>
	<stop  offset="0.1603" style="stop-color:#148ED5"/>
	<stop  offset="0.3992" style="stop-color:#16B1CD"/>
	<stop  offset="0.6255" style="stop-color:#17CAC7"/>
	<stop  offset="0.8319" style="stop-color:#18D9C3"/>
	<stop  offset="1" style="stop-color:#18DEC2"/>
</linearGradient>
<path class="st0" d="M194.5,18.7c2.7,13,3.9,36.7-15,56.5c-14.2,14.8-32.6,22.5-52,30.6c-27.9,11.6-56.7,23.7-72.7,58.7l-0.9,1.9
	l-1-1.8c-0.3-0.5-26.6-48.3,22.9-84.1c15.5-11.2,36.7-22.5,57.3-33.4c22.9-12.2,44.6-23.7,53.4-32.8C168.9,5.1,149.1,0,128,0
	C57.3,0,0,57.3,0,128c0,65.2,48.8,118.9,111.8,126.9c-13-12-45.2-47.8-44-74.7c1.2-26.6,38.2-43.5,70.9-58.4
	c21.1-9.6,41-18.7,46.1-28.5l1.2-2.2l0.8,2.3c0.1,0.4,13.4,40.9-16.1,56.3c-9.6,5-17.4,8.7-23.6,11.7c-17.7,8.5-24.4,11.7-34.3,25.9
	c-14.8,26.3-1.4,56,5.1,67.6c0.1,0.2,0.2,0.4,0.3,0.6c3.2,0.3,6.5,0.4,9.8,0.4c70.7,0,128-57.3,128-128
	C256,81.7,231.4,41.2,194.5,18.7z"/>
</svg>
