<svg xmlns="http://www.w3.org/2000/svg" xmlns:xlink="http://www.w3.org/1999/xlink" viewBox="0 0 167.85 50"><defs><style>.cls-1{fill:#2b3990;}.cls-2{fill:url(#linear-gradient);}</style><linearGradient id="linear-gradient" x1="7.33" y1="42.67" x2="48.93" y2="1.07" gradientUnits="userSpaceOnUse"><stop offset="0" stop-color="#1373dc"/><stop offset="0.16" stop-color="#148ed5"/><stop offset="0.4" stop-color="#16b1cd"/><stop offset="0.63" stop-color="#17cac7"/><stop offset="0.83" stop-color="#18d9c3"/><stop offset="1" stop-color="#18dec2"/></linearGradient></defs><title>flow-logo</title><g id="Layer_2" data-name="Layer 2"><g id="Logo"><path class="cls-1" d="M77.86,17.12v6.28H71.49V44.67H64.4V23.41H59.69V17.12H64.4C64.4,8.65,70,4.61,77.86,5.52v6.66c-3.38-.27-6.37.25-6.37,4.94Z"/><path class="cls-1" d="M82.36,5.52H89.5V33.07c0,3.92,1.77,5.32,5.26,5.1v6.44c-8.11.86-12.41-4-12.41-11.55Z"/><path class="cls-1" d="M124.78,30.87c0,8.27-6.28,14.45-14,14.45S96.91,39.14,96.91,30.87s6.23-14.55,13.91-14.55S124.78,22.6,124.78,30.87Zm-7.14.05c0-4.78-3.06-8.11-6.82-8.11S104,26.15,104,30.93s3.06,7.89,6.82,7.89S117.64,35.6,117.64,30.93Z"/><path class="cls-1" d="M159.2,44.67h-7.3l-5-18.31-5,18.31h-7.36L126,17h7.52l4.83,19.33,5-19.33h7.09l5,19.33L160.33,17h7.52Z"/><path class="cls-2" d="M38,3.65a12.07,12.07,0,0,1-2.93,11c-2.77,2.89-6.36,4.39-10.15,6-5.45,2.27-11.08,4.63-14.2,11.47l-.17.37-.2-.35c-.05-.09-5.2-9.43,4.46-16.43A102.48,102.48,0,0,1,26,9.18c4.48-2.38,8.7-4.63,10.43-6.41a25,25,0,1,0-14.59,47C19.3,47.45,13,40.46,13.25,35.2s7.47-8.5,13.86-11.41c4.11-1.88,8-3.65,9-5.57l.22-.43.15.46c0,.08,2.61,8-3.15,11-1.88,1-3.39,1.71-4.6,2.29C25.28,33.19,24,33.82,22,36.59c-2.89,5.13-.27,10.94,1,13.21l.07.12c.63,0,1.27.08,1.91.08A25,25,0,0,0,38,3.65Z"/></g></g></svg>