<svg xmlns="http://www.w3.org/2000/svg" viewBox="0 0 87.7 83.93"><defs><style>.cls-1{fill:#5fb0e5;}.cls-2{fill:none;stroke:#0686d8;stroke-miterlimit:10;stroke-width:2px;}.cls-3{fill:#fff;}.cls-4{fill:#9ecfef;}.cls-5{fill:#0686d8;}</style></defs><title>forgot-password-lock-icon</title><g id="Layer_2" data-name="Layer 2"><g id="Forgot_Password_icon" data-name="Forgot Password icon"><g id="_Group_" data-name="&lt;Group&gt;"><path id="_Path_" data-name="&lt;Path&gt;" class="cls-1" d="M65.77,39.32h-7.9V23.38a14.48,14.48,0,1,0-29,0V39.32H21V23.38a22.38,22.38,0,1,1,44.76,0Z"/></g><g id="_Group_2" data-name="&lt;Group&gt;"><path id="_Path_2" data-name="&lt;Path&gt;" class="cls-2" d="M65.77,39.32h-7.9V23.38a14.48,14.48,0,1,0-29,0V39.32H21V23.38a22.38,22.38,0,1,1,44.76,0Z"/></g><circle id="_Path_3" data-name="&lt;Path&gt;" class="cls-1" cx="77.39" cy="67.76" r="1.27"/><circle id="_Path_4" data-name="&lt;Path&gt;" class="cls-1" cx="13.41" cy="24.81" r="1.27"/><circle id="_Path_5" data-name="&lt;Path&gt;" class="cls-1" cx="70.32" cy="80.73" r="1.51"/><circle id="_Path_6" data-name="&lt;Path&gt;" class="cls-1" cx="1.51" cy="39.32" r="1.51"/><circle id="_Path_7" data-name="&lt;Path&gt;" class="cls-1" cx="85.42" cy="78.53" r="2.28"/><circle id="_Path_8" data-name="&lt;Path&gt;" class="cls-1" cx="11.03" cy="4.88" r="2.28"/><circle id="_Path_9" data-name="&lt;Path&gt;" class="cls-3" cx="43.29" cy="54.02" r="28.92"/><circle id="_Path_10" data-name="&lt;Path&gt;" class="cls-4" cx="43.29" cy="54.02" r="16.46"/><circle id="_Path_11" data-name="&lt;Path&gt;" class="cls-1" cx="43.29" cy="54.02" r="6.84"/><circle id="_Path_12" data-name="&lt;Path&gt;" class="cls-5" cx="43.29" cy="54.02" r="2.59"/><circle id="_Path_13" data-name="&lt;Path&gt;" class="cls-2" cx="43.29" cy="54.02" r="6.84"/><path id="_Path_14" data-name="&lt;Path&gt;" class="cls-2" d="M65.73,72.26A28.8,28.8,0,1,1,70.8,63"/><path id="_Path_15" data-name="&lt;Path&gt;" class="cls-2" d="M68.74,67.76q-.54,1-1.16,2"/><line id="_Path_16" data-name="&lt;Path&gt;" class="cls-2" x1="43.39" y1="41.22" x2="43.39" y2="44.94"/><line id="_Path_17" data-name="&lt;Path&gt;" class="cls-2" x1="49.78" y1="42.98" x2="47.92" y2="46.2"/><line id="_Path_18" data-name="&lt;Path&gt;" class="cls-2" x1="54.42" y1="47.7" x2="51.2" y2="49.56"/><line id="_Path_19" data-name="&lt;Path&gt;" class="cls-2" x1="56.09" y1="54.11" x2="52.37" y2="54.11"/><line id="_Path_20" data-name="&lt;Path&gt;" class="cls-2" x1="54.32" y1="60.5" x2="51.11" y2="58.64"/><line id="_Path_21" data-name="&lt;Path&gt;" class="cls-2" x1="49.61" y1="65.15" x2="47.75" y2="61.93"/><line id="_Path_22" data-name="&lt;Path&gt;" class="cls-2" x1="43.2" y1="66.81" x2="43.19" y2="63.1"/><line id="_Path_23" data-name="&lt;Path&gt;" class="cls-2" x1="36.81" y1="65.05" x2="38.67" y2="61.83"/><line id="_Path_24" data-name="&lt;Path&gt;" class="cls-2" x1="32.16" y1="60.33" x2="35.38" y2="58.47"/><line id="_Path_25" data-name="&lt;Path&gt;" class="cls-2" x1="30.49" y1="53.92" x2="34.21" y2="53.92"/><line id="_Path_26" data-name="&lt;Path&gt;" class="cls-2" x1="32.25" y1="47.54" x2="35.47" y2="49.39"/><line id="_Path_27" data-name="&lt;Path&gt;" class="cls-2" x1="36.97" y1="42.89" x2="38.83" y2="46.11"/></g></g></svg>