<svg xmlns="http://www.w3.org/2000/svg" viewBox="0 0 118.86 97.63"><defs><style>.cls-1{fill:#fff;}.cls-2{fill:#f86464;opacity:0;}</style></defs><title>get-started-icon</title><g id="Layer_2" data-name="Layer 2"><g id="Design"><path class="cls-1" d="M33.47,25.1a1.19,1.19,0,0,1-1-.59l-1.67-2.85a7.86,7.86,0,0,0-3.22-3l-2.94-1.5A1.19,1.19,0,0,1,24.55,15l2.85-1.67a7.86,7.86,0,0,0,3-3.22l1.5-2.94a1.19,1.19,0,0,1,1-.65A1.16,1.16,0,0,1,34,7.14L35.7,10a7.86,7.86,0,0,0,3.22,3l2.94,1.5a1.19,1.19,0,0,1,.06,2.08l-2.85,1.67a7.87,7.87,0,0,0-3,3.22l-1.5,2.94a1.19,1.19,0,0,1-1,.65ZM27.62,16l1,.52a10.22,10.22,0,0,1,4.19,4l.57,1,.52-1a10.23,10.23,0,0,1,4-4.19l1-.57-1-.52a10.22,10.22,0,0,1-4.19-4l-.57-1-.52,1a10.22,10.22,0,0,1-4,4.19Z"/><path class="cls-1" d="M87.69,19l1.18,2a6.42,6.42,0,0,0,2.62,2.48l2.08,1.06-2,1.18a6.42,6.42,0,0,0-2.48,2.62L88,30.43l-1.18-2a6.42,6.42,0,0,0-2.62-2.48l-2.08-1.06,2-1.18a6.42,6.42,0,0,0,2.48-2.62Z"/><path class="cls-1" d="M39,32.81l.59,1a3.22,3.22,0,0,0,1.32,1.24l1,.53-1,.59a3.22,3.22,0,0,0-1.24,1.32l-.53,1-.59-1a3.22,3.22,0,0,0-1.32-1.24l-1-.53,1-.59a3.22,3.22,0,0,0,1.24-1.32Z"/><path class="cls-1" d="M73.9,72.3H48.58a1.19,1.19,0,0,1-1.19-1.19V37A47.62,47.62,0,0,1,59,5.81l1-1.15a1.19,1.19,0,0,1,1.77,0l.87,1A47.51,47.51,0,0,1,75.09,37.65V71.12A1.19,1.19,0,0,1,73.9,72.3ZM49.77,69.93H72.71V37.65A45.15,45.15,0,0,0,61,7.22l-.13.15A45.25,45.25,0,0,0,49.77,37Z"/><path class="cls-1" d="M58.07,85H50.16A1.19,1.19,0,0,1,49,83.78v-8.7a5.14,5.14,0,1,1,10.29,0v8.7A1.19,1.19,0,0,1,58.07,85Zm-6.73-2.37h5.54V75.07a2.77,2.77,0,1,0-5.54,0Z"/><path class="cls-1" d="M72.32,85a1.19,1.19,0,0,1-1.19-1.19v-8.7a2.77,2.77,0,1,0-5.54,0v7.52h2a1.19,1.19,0,0,1,0,2.37H64.41a1.19,1.19,0,0,1-1.19-1.19v-8.7a5.14,5.14,0,0,1,10.29,0v8.7A1.19,1.19,0,0,1,72.32,85Z"/><path class="cls-1" d="M95.27,66.76H82.61a1.19,1.19,0,0,1-1.19-1.19V51.33a7.52,7.52,0,0,1,15,0V65.58A1.19,1.19,0,0,1,95.27,66.76ZM83.79,64.39H94.08V51.33a5.14,5.14,0,0,0-10.29,0Z"/><path class="cls-1" d="M81.81,55.69a1.18,1.18,0,0,1-.66-.2L74,50.74a1.19,1.19,0,0,1,1.32-2l7.12,4.75a1.19,1.19,0,0,1-.66,2.17Z"/><path class="cls-1" d="M81,64.39H74.69a1.19,1.19,0,0,1,0-2.37H81a1.19,1.19,0,0,1,0,2.37Z"/><path class="cls-1" d="M39.87,66.76H35.13a1.19,1.19,0,0,1,0-2.37h3.56V51.33a5.14,5.14,0,1,0-10.29,0V64.39h1.19a1.19,1.19,0,1,1,0,2.37H27.21A1.19,1.19,0,0,1,26,65.58V51.33a7.52,7.52,0,1,1,15,0V65.58A1.19,1.19,0,0,1,39.87,66.76Z"/><path class="cls-1" d="M40.67,55.69A1.19,1.19,0,0,1,40,53.51l7.12-4.75a1.19,1.19,0,0,1,1.32,2l-7.12,4.75A1.18,1.18,0,0,1,40.67,55.69Z"/><path class="cls-1" d="M47.79,64.39H41.46a1.19,1.19,0,0,1,0-2.37h6.33a1.19,1.19,0,0,1,0,2.37Z"/><path class="cls-1" d="M60.84,23.24a35,35,0,0,1-9.67-1.31,1.19,1.19,0,0,1,.66-2.28,34.64,34.64,0,0,0,14,.86,1.19,1.19,0,0,1,.34,2.35A37.17,37.17,0,0,1,60.84,23.24Z"/><path class="cls-1" d="M92.1,77.84a1.19,1.19,0,0,1-1.19-1.19V71.91a1.19,1.19,0,1,1,2.37,0v4.75A1.19,1.19,0,0,1,92.1,77.84Z"/><path class="cls-1" d="M85.77,81a1.19,1.19,0,0,1-1.19-1.19V71.91a1.19,1.19,0,0,1,2.37,0v7.91A1.19,1.19,0,0,1,85.77,81Z"/><path class="cls-1" d="M30.38,77.84a1.19,1.19,0,0,1-1.19-1.19V71.91a1.19,1.19,0,0,1,2.37,0v4.75A1.19,1.19,0,0,1,30.38,77.84Z"/><path class="cls-1" d="M36.71,81a1.19,1.19,0,0,1-1.19-1.19V71.91a1.19,1.19,0,1,1,2.37,0v7.91A1.19,1.19,0,0,1,36.71,81Z"/><path class="cls-1" d="M51,93.67a1.19,1.19,0,0,1-1.19-1.19V89.32a1.19,1.19,0,0,1,2.37,0v3.17A1.19,1.19,0,0,1,51,93.67Z"/><path class="cls-1" d="M57.28,97.63a1.19,1.19,0,0,1-1.19-1.19V89.32a1.19,1.19,0,0,1,2.37,0v7.12A1.19,1.19,0,0,1,57.28,97.63Z"/><path class="cls-1" d="M65.2,97.63A1.19,1.19,0,0,1,64,96.44V89.32a1.19,1.19,0,0,1,2.37,0v7.12A1.19,1.19,0,0,1,65.2,97.63Z"/><path class="cls-1" d="M71.53,93.67a1.19,1.19,0,0,1-1.19-1.19V89.32a1.19,1.19,0,0,1,2.37,0v3.17A1.19,1.19,0,0,1,71.53,93.67Z"/><circle class="cls-1" cx="3.24" cy="38.92" r="3.24"/><circle class="cls-1" cx="114.61" cy="4.25" r="4.25"/><circle class="cls-1" cx="113.1" cy="51.3" r="2.74"/><rect class="cls-1" x="0.18" y="79.63" width="7.16" height="1.73"/><rect class="cls-1" x="2.9" y="76.91" width="1.72" height="7.16"/><path class="cls-2" d="M71.12,21.79l-.63,0a47.48,47.48,0,0,1-9.07.86c-1,0-1.95,0-2.9-.09A44.6,44.6,0,0,0,56.1,37.07v7.69a5.33,5.33,0,1,1,5.33,5.33,5.33,5.33,0,0,1-5.33-5.33V69.87H74.36V38.46A44.62,44.62,0,0,0,71.12,21.79Z"/><path class="cls-1" d="M60.84,50.94a6.33,6.33,0,1,1,6.33-6.33A6.34,6.34,0,0,1,60.84,50.94Zm0-10.29a4,4,0,1,0,4,4A4,4,0,0,0,60.84,40.65Z"/></g></g></svg>