<?xml version="1.0" encoding="utf-8"?>
<!-- Generator: Adobe Illustrator 21.0.2, SVG Export Plug-In . SVG Version: 6.00 Build 0)  -->
<svg version="1.1" id="Layer_1" xmlns="http://www.w3.org/2000/svg" xmlns:xlink="http://www.w3.org/1999/xlink" x="0px" y="0px"
	 viewBox="0 0 256 256" style="enable-background:new 0 0 256 256;" xml:space="preserve">
<style type="text/css">
	.st0{fill:#262262;}
	.st1{fill:#FFFFFF;}
</style>
<g>
	<path class="st0" d="M256,216c0,22-18,40-40,40H40c-22,0-40-18-40-40V40C0,18,18,0,40,0h176c22,0,40,18,40,40V216z"/>
</g>
<g>
	<path class="st1" d="M146.8,42.6c-1.8,0-3.5,0.3-5.1,0.9c-1.9,0.7-3.5,2.2-4.3,4.1c-0.9,1.9-0.9,4.1-0.2,6.1h-13.3v-4.2v-4.5
		c0-1.3-1.1-2.4-2.5-2.4h-10.2c-1.4,0-2.5,1.1-2.5,2.4v4.5v4.2H95.3c0.7-2,0.6-4.2-0.2-6.1c-0.9-1.9-2.4-3.4-4.3-4.1
		c-1.6-0.6-3.4-0.9-5.1-0.9h-8.2l8.3,23.9c0.8,1.1,2.2,1.8,3.6,1.8h19.3h15.3h19.3c1.4,0,2.8-0.7,3.6-1.8l8.3-23.9H146.8z"/>
	<path class="st1" d="M138.5,153.6"/>
	<path class="st1" d="M177.9,189.2c5.6-8.3-2.7-26.4-8.9-30.9c-9.1-2.4-15.7-0.5-19.1,1.1c3.6,10.8,12.1,26,0,53.1
		C149.9,212.5,172.4,197.4,177.9,189.2z"/>
	<path class="st1" d="M89.6,78.5c-0.7,0-1.4-0.1-1.9,0.4C87.2,79.4,87,80,87,80.8v12.8c0,5.1,2.1,10,5.7,13.6
		c9.6,9.5,17,23.6,26.9,46.5c8.5,19.6,12.9,38.6,12.9,67.7c22.5-24,10.6-52,7.5-62.5c0,0,0,0,0,0c-4.6-16.5-12.9-30.8-12.9-30.8
		c8.9,7.3,15.6,16.4,18.9,21.4c9-3.5,21.5-3.5,32.2,5.5h9.4v-30.7c0,0-6.1,2.1-6.7,3.7c-3.8,8.8-24.1,9.9-24.1-5
		c0-12.1,16.9-10.6,24.5-7.3h5.3l5.6-12.5c0-2.9-2.3-5.2-5.2-5.2h-24.7c-4.4,0-6.4,10.2-15.3,10.2c-14.5,0-15.1-13.8-15.1-13.8h22.5
		c-1.5-2-4.8-10.1-6.3-13.9c-0.5-1.2-1.6-1.9-2.8-1.9L89.6,78.5z"/>
	<path class="st1" d="M87.7,78.9c0,0-56.4,52.5,4,108.4c0,0,30.5,28.1,30.5,27.6c-3.1-23.2-12.4-63.4-25.3-84
		c-15.1-24,5.2-38,5.2-38L87.7,78.9z"/>
</g>
</svg>
