<svg xmlns="http://www.w3.org/2000/svg" viewBox="0 0 16 16"><defs><style>.cls-1{fill:#00d7e8;}</style></defs><title>instagram-icon</title><g id="Layer_2" data-name="Layer 2"><g id="Design"><path class="cls-1" d="M8,1.44c2.14,0,2.39,0,3.23,0a4.42,4.42,0,0,1,1.48.28,2.47,2.47,0,0,1,.92.6,2.47,2.47,0,0,1,.6.92,4.42,4.42,0,0,1,.28,1.48c0,.84,0,1.1,0,3.23s0,2.39,0,3.23a4.42,4.42,0,0,1-.28,1.48,2.64,2.64,0,0,1-1.52,1.52,4.42,4.42,0,0,1-1.48.28c-.84,0-1.1,0-3.23,0s-2.39,0-3.23,0a4.42,4.42,0,0,1-1.49-.28,2.47,2.47,0,0,1-.92-.6,2.47,2.47,0,0,1-.6-.92,4.42,4.42,0,0,1-.28-1.48c0-.84,0-1.1,0-3.23s0-2.39,0-3.23a4.42,4.42,0,0,1,.28-1.49,2.47,2.47,0,0,1,.6-.92,2.47,2.47,0,0,1,.92-.6,4.42,4.42,0,0,1,1.49-.28c.84,0,1.1,0,3.23,0M8,0C5.83,0,5.55,0,4.7,0A5.87,5.87,0,0,0,2.76.42a3.91,3.91,0,0,0-1.42.92A3.91,3.91,0,0,0,.42,2.76,5.87,5.87,0,0,0,0,4.7C0,5.55,0,5.83,0,8s0,2.44,0,3.3a5.87,5.87,0,0,0,.37,1.94,3.91,3.91,0,0,0,.92,1.42,3.91,3.91,0,0,0,1.42.92A5.87,5.87,0,0,0,4.7,16c.85,0,1.13,0,3.3,0s2.44,0,3.3,0a5.87,5.87,0,0,0,1.94-.37,4.09,4.09,0,0,0,2.34-2.34A5.87,5.87,0,0,0,16,11.3c0-.85,0-1.12,0-3.3s0-2.44,0-3.3a5.87,5.87,0,0,0-.37-1.94,3.91,3.91,0,0,0-.92-1.42A3.91,3.91,0,0,0,13.24.42,5.87,5.87,0,0,0,11.3,0C10.44,0,10.17,0,8,0Z"/><path class="cls-1" d="M8,3.89A4.11,4.11,0,1,0,12.11,8,4.11,4.11,0,0,0,8,3.89Zm0,6.77A2.67,2.67,0,1,1,10.67,8h0A2.67,2.67,0,0,1,8,10.67Z"/><circle class="cls-1" cx="12.27" cy="3.73" r="0.96"/></g></g></svg>