<?xml version="1.0" encoding="utf-8"?>
<!-- Generator: Adobe Illustrator 21.0.2, SVG Export Plug-In . SVG Version: 6.00 Build 0)  -->
<svg version="1.1" id="Layer_1" xmlns="http://www.w3.org/2000/svg" xmlns:xlink="http://www.w3.org/1999/xlink" x="0px" y="0px"
	 viewBox="0 0 1000 500" style="enable-background:new 0 0 1000 500;" xml:space="preserve">
<style type="text/css">
	.st0{fill:#FFFFFF;}
</style>
<g>
	<g>
		<path class="st0" d="M309.4,215.7h16.6v33.5l0.2,0.1l26.5-33.6h19.8l-28.7,35.2l31.1,40.6h-20.5l-28.2-37.9l-0.2,0.1v37.8h-16.6
			V215.7z"/>
		<path class="st0" d="M380,215.7h16.6v75.8H380V215.7z"/>
		<path class="st0" d="M440.7,261c-4.9-6.6-9.5-13-14.2-19.6l-0.2,0.1c0.1,7.2,0.2,14.6,0.2,21.9v28.2h-16v-75.8h15.7l22.7,30.6
			c4.9,6.6,9.5,13,14.2,19.6l0.2-0.1c-0.1-7.2-0.2-14.6-0.2-21.9v-28.2h16v75.8h-15.7L440.7,261z"/>
		<path class="st0" d="M531.2,214.6c9.3,0,17.4,2.5,23.2,5.8v16.8c-6.4-4.4-14.7-7.5-22.9-7.5c-15.3,0-25.1,10.8-25.1,24.3
			c0,13.2,9.4,24.3,25,24.3c3.5,0,6.8-0.6,9.3-1.7v-11.4h-13.2v-13.8h29.3v35.2c-6.8,3.8-16.3,6.3-25.8,6.3
			c-24.3,0-41.4-16.4-41.4-38.7C489.7,231.6,507,214.6,531.2,214.6z"/>
		<path class="st0" d="M570,215.7h21.3c30.1,0,46.4,13.5,46.4,37.8c0,23.2-14.7,38-47.1,38H570V215.7z M591.2,277
			c20.9,0,29.7-8.5,29.7-23.5c0-8-3.1-14.7-8.8-18.6c-5.3-3.8-12.6-4.6-21-4.6h-4.5V277H591.2z"/>
		<path class="st0" d="M644.4,253.6c0-22.1,17.1-39,39.6-39s39.6,17,39.6,39c0,22.1-17.1,39-39.6,39S644.4,275.7,644.4,253.6z
			 M706.9,253.6c0-13.4-9.8-24-22.9-24s-22.9,10.6-22.9,24s9.8,24,22.9,24S706.9,267,706.9,253.6z"/>
		<path class="st0" d="M761.1,258.5c-3.8-5.3-7.5-10.9-11.1-16.2l-0.2,0.1c0.1,5.4,0.2,12.6,0.2,18.8v30.4h-16v-75.8h16l22.5,32
			l22.5-32h15.8v75.8h-16.6v-30.4c0-6.3,0.1-13.4,0.2-18.8l-0.2-0.1c-3.6,5.3-7.3,10.9-11.1,16.2l-11,15.6L761.1,258.5z"/>
	</g>
	<g>
		<path class="st0" d="M247.2,187.5c-1.3,0-2.5,0.2-3.6,0.7c-1.3,0.5-2.4,1.5-3,2.9c-0.6,1.3-0.7,2.9-0.2,4.2h-9.3v-2.9v-3.1
			c0-0.9-0.8-1.7-1.8-1.7h-7.1c-1,0-1.8,0.8-1.8,1.7v3.1v2.9h-9.3c0.5-1.4,0.4-2.9-0.2-4.2c-0.6-1.3-1.7-2.4-3-2.9
			c-1.1-0.4-2.4-0.7-3.6-0.7h-5.7l5.8,16.7c0.6,0.8,1.5,1.3,2.5,1.3h13.5h10.7h13.5c1,0,2-0.5,2.5-1.3l5.8-16.7H247.2z"/>
		<path class="st0" d="M241.4,265.1"/>
		<path class="st0" d="M268.9,290c3.9-5.8-1.9-18.5-6.2-21.6c-6.4-1.7-11-0.3-13.4,0.8c2.5,7.5,8.4,18.2,0,37.1
			C249.3,306.3,265,295.7,268.9,290z"/>
		<path class="st0" d="M207.2,212.6c-0.5,0-1-0.1-1.3,0.3c-0.3,0.3-0.5,0.8-0.5,1.3v8.9c0,3.6,1.4,7,4,9.5
			c6.7,6.6,11.9,16.5,18.8,32.5c6,13.7,9,27,9,47.4c15.8-16.8,7.4-36.3,5.2-43.7c0,0,0,0,0,0c-3.2-11.6-9-21.5-9-21.5
			c6.2,5.1,10.9,11.4,13.3,15c6.3-2.4,15.1-2.5,22.5,3.8h6.6v-21.5c0,0-4.2,1.5-4.7,2.6c-2.7,6.1-16.8,6.9-16.8-3.5
			c0-8.5,11.8-7.4,17.1-5.1h3.7l3.9-8.7c0-2-1.6-3.7-3.7-3.7H258c-3.1,0-4.5,7.1-10.7,7.1c-10.2,0-10.5-9.6-10.5-9.6h15.8
			c-1.1-1.4-3.4-7.1-4.4-9.7c-0.3-0.8-1.1-1.3-2-1.3L207.2,212.6z"/>
		<path class="st0" d="M205.9,212.9c0,0-39.4,36.7,2.8,75.8c0,0,21.3,19.6,21.3,19.3c-2.2-16.3-8.7-44.3-17.7-58.7
			c-10.5-16.8,3.7-26.6,3.7-26.6L205.9,212.9z"/>
	</g>
</g>
</svg>
