<svg xmlns="http://www.w3.org/2000/svg" viewBox="0 0 248.7 50"><defs><style>.cls-1{fill:#fff;}</style></defs><title>kingdom-logo</title><g id="Layer_2" data-name="Layer 2"><g id="Logo"><path class="cls-1" d="M48.12,11.3h6.66V24.7l.08,0L65.46,11.3h7.91L61.9,25.37,74.34,41.62H66.13L54.87,26.46l-.08,0V41.62H48.12Z"/><path class="cls-1" d="M76.35,11.3H83V41.62H76.35Z"/><path class="cls-1" d="M100.63,29.39c-2-2.64-3.81-5.19-5.7-7.83l-.08,0c0,2.89.08,5.82.08,8.75V41.62H88.53V11.3h6.28l9.09,12.23c2,2.64,3.81,5.19,5.69,7.83l.08,0c0-2.89-.08-5.82-.08-8.75V11.3H116V41.62h-6.28Z"/><path class="cls-1" d="M136.81,10.84a19.38,19.38,0,0,1,9.3,2.3v6.7a16.65,16.65,0,0,0-9.17-3c-6.11,0-10,4.31-10,9.71s3.77,9.71,10,9.71a10,10,0,0,0,3.73-.67V31h-5.28V25.49h11.72V39.56a22.17,22.17,0,0,1-10.3,2.51c-9.71,0-16.54-6.57-16.54-15.49S127.14,10.84,136.81,10.84Z"/><path class="cls-1" d="M152.35,11.3h8.5c12.06,0,18.55,5.4,18.55,15.12,0,9.3-5.86,15.2-18.84,15.2h-8.21Zm8.5,24.5c8.37,0,11.89-3.39,11.89-9.38A8.81,8.81,0,0,0,169.22,19c-2.14-1.51-5-1.84-8.42-1.84H159V35.8Z"/><path class="cls-1" d="M182.12,26.46a15.83,15.83,0,0,1,31.66,0,15.83,15.83,0,0,1-31.66,0Zm25,0c0-5.36-3.94-9.59-9.17-9.59s-9.17,4.23-9.17,9.59S192.71,36,197.95,36,207.12,31.82,207.12,26.46Z"/><path class="cls-1" d="M228.81,28.38c-1.51-2.14-3-4.35-4.44-6.49l-.08,0c0,2.18.08,5,.08,7.54V41.62H218V11.3h6.41l9,12.81,9-12.81h6.32V41.62H242V29.47c0-2.51,0-5.36.08-7.54l-.08,0c-1.42,2.14-2.93,4.36-4.44,6.49l-4.4,6.24Z"/><path class="cls-1" d="M23.22,0a4.09,4.09,0,0,0-1.44.26,2.17,2.17,0,0,0-1.21,1.15,2.29,2.29,0,0,0-.07,1.7H16.79V.68A.7.7,0,0,0,16.08,0H13.23a.7.7,0,0,0-.71.68V3.11H8.8a2.29,2.29,0,0,0-.07-1.7A2.17,2.17,0,0,0,7.53.26,4.09,4.09,0,0,0,6.09,0H3.79L6.11,6.68a1.23,1.23,0,0,0,1,.51H22.19a1.23,1.23,0,0,0,1-.51L25.52,0Z"/><path class="cls-1" d="M20.9,31.05"/><path class="cls-1" d="M31.91,41c1.57-2.31-.76-7.39-2.5-8.66a7.65,7.65,0,0,0-5.34.31c1,3,3.38,7.29,0,14.85C24.07,47.51,30.36,43.29,31.91,41Z"/><path class="cls-1" d="M7.22,10c-.2,0-.39,0-.53.11a.74.74,0,0,0-.22.52v3.57A5.34,5.34,0,0,0,8.06,18c2.69,2.65,4.74,6.6,7.53,13C18,36.55,19.21,41.86,19.21,50c6.31-6.73,3-14.54,2.1-17.48h0a41.54,41.54,0,0,0-3.62-8.61,28.88,28.88,0,0,1,5.3,6,8.85,8.85,0,0,1,9,1.54h2.63V22.83s-1.7.59-1.89,1C31.66,26.31,26,26.61,26,22.45c0-3.4,4.74-3,6.86-2h1.48l1.56-3.49a1.46,1.46,0,0,0-1.46-1.46H27.53c-1.24,0-1.79,2.85-4.27,2.85A4,4,0,0,1,19,14.46h6.3a26.63,26.63,0,0,1-1.75-3.89A.84.84,0,0,0,22.8,10Z"/><path class="cls-1" d="M6.69,10.14S-9.08,24.84,7.81,40.45c0,0,8.54,7.85,8.52,7.72-.88-6.5-3.48-17.73-7.09-23.49C5,18,10.7,14.05,10.7,14.05Z"/></g></g></svg>