<svg xmlns="http://www.w3.org/2000/svg" viewBox="0 0 16.1 16"><defs><style>.cls-1{fill:#00d7e8;}</style></defs><title>linkedin-icon</title><g id="Layer_2" data-name="Layer 2"><g id="Design"><path class="cls-1" d="M15.3,0H.7A.68.68,0,0,0,0,.7V15.4a.67.67,0,0,0,.7.6H15.4a.68.68,0,0,0,.7-.7V.7A.85.85,0,0,0,15.3,0ZM4.7,13.6H2.4V6H4.8v7.6ZM3.6,5A1.43,1.43,0,0,1,2.2,3.6,1.37,1.37,0,0,1,3.6,2.2,1.37,1.37,0,0,1,5,3.6,1.59,1.59,0,0,1,3.6,5Zm10,8.6H11.2V9.9c0-.9,0-2-1.2-2s-1.4,1-1.4,2v3.8H6.2V6H8.5V7h0a2.44,2.44,0,0,1,2.2-1.2c2.4,0,2.8,1.6,2.8,3.6v4.2Z"/></g></g></svg>