<svg xmlns="http://www.w3.org/2000/svg" viewBox="0 0 15.24 20"><defs><style>.cls-1{fill:#9ea6b2;}</style></defs><title>lock-icon</title><g id="Layer_2" data-name="Layer 2"><g id="Lock_icon" data-name="Lock icon"><path class="cls-1" d="M7.62,15.24a1.9,1.9,0,1,0-1.9-1.9A1.91,1.91,0,0,0,7.62,15.24Zm5.71-8.57h-1V4.76a4.76,4.76,0,1,0-9.52,0v1.9h-1A1.91,1.91,0,0,0,0,8.57V18.1A1.91,1.91,0,0,0,1.9,20H13.33a1.91,1.91,0,0,0,1.9-1.9V8.57A1.91,1.91,0,0,0,13.33,6.67ZM4.67,4.76a3,3,0,0,1,5.9,0v1.9H4.67ZM13.33,18.1H1.9V8.57H13.33Z"/></g></g></svg>