<svg xmlns="http://www.w3.org/2000/svg" viewBox="0 0 20 20"><defs><style>.cls-1{fill:#dfe8f4;}.cls-2{fill:#fba470;}</style></defs><title>my-account-icon</title><g id="Layer_2" data-name="Layer 2"><g id="My_Account_icon" data-name="My Account icon"><circle class="cls-1" cx="10" cy="10" r="10"/><path class="cls-2" d="M13.68,8.94V7.3a3.68,3.68,0,0,0-1.84-3.19h0a3.68,3.68,0,0,0-3.68,0h0A3.68,3.68,0,0,0,6.32,7.3V8.94a3.23,3.23,0,0,0,1.61,2.8h0a4.14,4.14,0,0,0,4.14,0h0A3.23,3.23,0,0,0,13.68,8.94Z"/><path class="cls-2" d="M10,20a10,10,0,0,0,6.88-2.76,8,8,0,0,0-13.76,0A10,10,0,0,0,10,20Z"/></g></g></svg>