<svg xmlns="http://www.w3.org/2000/svg" viewBox="0 0 15.84 18.81"><defs><style>.cls-1{fill:#f54d77;}.cls-2{fill:#ccd8e5;}.cls-3{fill:#dfe8f4;}</style></defs><title>notifications-icon</title><g id="Layer_2" data-name="Layer 2"><g id="Notification_icon" data-name="Notification icon"><circle class="cls-1" cx="7.92" cy="16.22" r="2.59"/><path class="cls-2" d="M15.16,13.09a3.77,3.77,0,0,1-1.51-2.92V7.39a5.72,5.72,0,0,0-4-5.45.6.6,0,0,1-.43-.58A1.33,1.33,0,0,0,9.12.78,1.29,1.29,0,0,0,8.28,0,1.32,1.32,0,0,0,6.61,1.31h0a.63.63,0,0,1-.43.62,5.72,5.72,0,0,0-4,5.45v2.77A3.77,3.77,0,0,1,.68,13.09,1.81,1.81,0,0,0,.06,15a1.87,1.87,0,0,0,1.82,1.34H14A1.87,1.87,0,0,0,15.78,15,1.81,1.81,0,0,0,15.16,13.09Z"/><path class="cls-3" d="M11.13,2.66l-.18-.12A.63.63,0,0,0,11.13,2.66Z"/><path class="cls-3" d="M1.59,15.72a1.81,1.81,0,0,1,.64-1.91A3.62,3.62,0,0,0,3.72,11V8.14a5.72,5.72,0,0,1,4-5.44.67.67,0,0,0,.46-.64h0a1.31,1.31,0,0,1,1-1.27h0A1.29,1.29,0,0,0,8.28,0,1.32,1.32,0,0,0,6.61,1.31h0a.66.66,0,0,1-.45.63,5.72,5.72,0,0,0-4,5.44v2.83A3.62,3.62,0,0,1,.71,13.07,1.81,1.81,0,0,0,.06,15a1.87,1.87,0,0,0,1.82,1.34A1.7,1.7,0,0,1,1.59,15.72Z"/><circle class="cls-1" cx="12.78" cy="5.72" r="3.06"/></g></g></svg>