<svg xmlns="http://www.w3.org/2000/svg" viewBox="0 0 26 17.67"><defs><style>.cls-1{isolation:isolate;}.cls-2{fill:#dfe8f4;}.cls-3,.cls-4{fill:#07d2a2;}.cls-4{opacity:0.3;mix-blend-mode:multiply;}.cls-5{fill:#ccd8e5;}</style></defs><title>payments-icon</title><g class="cls-1"><g id="Layer_2" data-name="Layer 2"><g id="Payments_icon" data-name="Payments icon"><rect class="cls-2" x="4.33" y="4.5" width="21.67" height="13.17" rx="2.88" ry="2.88"/><rect class="cls-3" width="21.67" height="13.17" rx="2.88" ry="2.88"/><circle class="cls-2" cx="2.69" cy="10.46" r="0.75"/><circle class="cls-2" cx="18.98" cy="2.71" r="0.75"/><path class="cls-4" d="M4.33,7.38v5.79H18.8a2.88,2.88,0,0,0,2.88-2.88V4.5H7.2A2.88,2.88,0,0,0,4.33,7.38Z"/><circle class="cls-2" cx="10.84" cy="6.58" r="3.78"/><path class="cls-5" d="M22.67,11.29V4.5h-1v5.79a2.88,2.88,0,0,1-2.88,2.88H4.33v1H19.8A2.88,2.88,0,0,0,22.67,11.29Z"/></g></g></g></svg>