<svg xmlns="http://www.w3.org/2000/svg" viewBox="0 0 19.88 20"><defs><style>.cls-1{fill:#cdc3e2;}</style></defs><title>search-icon</title><g id="Layer_2" data-name="Layer 2"><g id="Design"><path id="Search_icon" data-name="Search icon" class="cls-1" d="M15.78,14a8.51,8.51,0,0,0,1.74-5.22A8.75,8.75,0,0,0,8.82,0a8.82,8.82,0,0,0,0,17.64A8.25,8.25,0,0,0,14,15.9l3.73,3.73a1.2,1.2,0,0,0,1.74,0,1.2,1.2,0,0,0,0-1.74Zm-7,1A6.26,6.26,0,0,1,2.48,8.82a6.34,6.34,0,0,1,12.67,0A6.26,6.26,0,0,1,8.82,15Z"/></g></g></svg>